<svg width="64" height="64" viewBox="0 0 64 64" fill="none" xmlns="http://www.w3.org/2000/svg">
  <!-- Градиентный фон -->
  <defs>
    <linearGradient id="bg-grad" x1="0%" y1="0%" x2="100%" y2="100%">
      <stop offset="0%" style="stop-color:#2563EB;stop-opacity:1" />
      <stop offset="100%" style="stop-color:#7C3AED;stop-opacity:1" />
    </linearGradient>
    <linearGradient id="car-grad" x1="0%" y1="0%" x2="100%" y2="100%">
      <stop offset="0%" style="stop-color:#FFFFFF;stop-opacity:1" />
      <stop offset="100%" style="stop-color:#E0E7FF;stop-opacity:1" />
    </linearGradient>
  </defs>
  
  <!-- Круглый фон -->
  <circle cx="32" cy="32" r="32" fill="url(#bg-grad)"/>
  
  <!-- Легковой автомобиль -->
  <g transform="translate(16, 20)">
    <path d="M28.84 8.01C28.64 7.42 28.08 7 27.42 7h-22.84c-1.32 0-2.42.84-2.84 2.01L0 18v16c0 1.1.9 2 2 2h2c1.1 0 2-.9 2-2v-2h24v2c0 1.1.9 2 2 2h2c1.1 0 2-.9 2-2V18l-4.16-11.99zM7 30c-1.66 0-3-1.34-3-3s1.34-3 3-3 3 1.34 3 3-1.34 3-3 3zm22 0c-1.66 0-3-1.34-3-3s1.34-3 3-3 3 1.34 3 3-1.34 3-3 3zM4 20l3-9h22l3 9H4z" 
          fill="url(#car-grad)" 
          transform="scale(0.9)"/>
  </g>
  
  <!-- Эффект блеска -->
  <circle cx="20" cy="20" r="4" fill="white" opacity="0.3"/>
</svg>

